<svg width="39" height="19" viewBox="0 0 39 19" fill="none" xmlns="http://www.w3.org/2000/svg">
<path d="M19.4998 18.9012C18.4321 18.9031 17.3745 18.6945 16.3874 18.2875C15.4004 17.8804 14.5032 17.2827 13.7473 16.5287L0.471063 3.25244C0.165069 2.94645 -0.00683594 2.53143 -0.00683594 2.09869C-0.00683594 1.66595 0.165069 1.25093 0.471063 0.94494C0.777056 0.638947 1.19207 0.467041 1.62481 0.467041C2.05755 0.467041 2.47257 0.638947 2.77856 0.94494L16.0548 14.2212C16.9689 15.1341 18.2079 15.6469 19.4998 15.6469C20.7917 15.6469 22.0307 15.1341 22.9448 14.2212L36.2211 0.94494C36.5271 0.638947 36.9421 0.467041 37.3748 0.467041C37.8076 0.467041 38.2226 0.638947 38.5286 0.94494C38.8346 1.25093 39.0065 1.66595 39.0065 2.09869C39.0065 2.53143 38.8346 2.94645 38.5286 3.25244L25.2523 16.5287C24.4964 17.2827 23.5992 17.8804 22.6122 18.2875C21.6251 18.6945 20.5675 18.9031 19.4998 18.9012Z" fill="black"/>
</svg>
